<svg width="62" height="54" viewBox="0 0 62 54" fill="none" xmlns="http://www.w3.org/2000/svg">
<path d="M61.8633 9.45749C60.9896 9.13282 58.0841 7.9441 57.3847 6.27898L57.3734 6.25157C56.6025 4.41616 54.7974 0.117554 49.7642 0.117554C43.3263 0.117554 41.4722 6.07527 41.1659 7.26964C40.644 9.30488 39.5584 13.5386 30.0227 20.1955C27.2674 22.119 22.0383 26.6988 17.3059 31.3357C14.1249 34.4525 8.84941 39.871 9.25738 41.1678C9.29752 41.2953 9.42414 41.5009 9.82256 41.5009C10.2072 41.5009 10.8076 41.3145 11.6445 40.9177C11.239 41.2861 10.6991 41.7741 10.1198 42.2891C5.25745 46.6116 0.0645702 51.3537 0.000377539 52.9143C-0.00669603 53.0851 0.0412274 53.2257 0.142733 53.332C0.496058 53.7021 0.87803 53.882 1.31058 53.882C1.78645 53.882 2.26374 53.6655 2.76897 53.4363C3.36651 53.1654 3.98439 52.8853 4.70731 52.8853C4.87265 52.8853 5.03923 52.9005 5.20281 52.9306L5.25109 52.9348C5.64455 52.9343 7.50366 51.8229 11.9724 49.0939C16.2093 46.5065 22.0121 42.963 22.9559 42.963C22.9744 42.963 22.9836 42.965 22.9836 42.965C23.6264 43.2256 28.6259 44.4411 34.3128 44.4411C34.6025 44.4411 34.8879 44.4373 35.1703 44.431C36.4377 45.5822 38.0537 47.0165 38.6986 47.4464C39.006 47.6514 39.27 47.8682 39.5252 48.0779C39.7407 48.255 39.9614 48.4364 40.206 48.6079C39.9167 48.7075 39.6042 48.8228 39.2728 48.9526C38.9112 49.0942 38.7321 49.5038 38.8737 49.8658C38.9803 50.1376 39.238 50.3134 39.5298 50.3135C39.5803 50.3135 39.5924 50.3135 40.9959 49.8316C41.5005 49.6585 42.0671 49.4638 42.208 49.421C42.5134 49.4741 42.8358 49.501 43.1672 49.501C44.4307 49.501 45.4852 49.12 45.7451 49.018C46.0021 49.0942 47.0569 49.4194 47.7173 49.7988C47.8607 49.8812 47.9857 49.8527 48.0483 49.7528C48.098 49.6734 48.0909 49.5666 48.0271 49.4354L47.5638 48.7858C47.6803 48.7927 47.7975 48.7975 47.9167 48.7975C49.1802 48.7975 50.2347 48.4166 50.4947 48.3145C50.7516 48.3908 51.8067 48.716 52.4668 49.0951C52.525 49.1285 52.5748 49.1441 52.6238 49.1441C52.6956 49.1441 52.7607 49.1086 52.7978 49.0493C52.8475 48.9699 52.8405 48.8629 52.7766 48.7317L52.2719 48.024C52.2567 48.0035 51.8884 47.5186 51.1295 47.2738C50.8643 47.1883 50.5461 47.143 50.2094 47.143C49.7063 47.143 49.3878 47.2144 49.1068 47.2774C48.8858 47.3269 48.6948 47.3697 48.4478 47.3697C48.1447 47.3697 47.7832 47.3036 47.3102 47.1617C46.2877 46.8551 43.9867 44.7539 42.4842 43.3036C43.7097 42.8944 44.7991 42.3779 45.7414 41.7499C52.6111 37.1721 52.9322 30.6533 53.1243 26.7584C53.1618 25.9962 53.1943 25.3378 53.273 24.8421C53.473 23.582 53.6654 22.0048 53.8516 20.4797C54.1075 18.3831 54.3491 16.4029 54.5767 15.5144C55.2601 12.8452 57.6024 10.9597 61.5381 9.9102C61.9143 9.80993 61.9924 9.78907 61.9995 9.64353C62.0036 9.56395 61.9548 9.49144 61.8633 9.45749ZM40.1381 43.9222C41.3671 45.0352 42.84 46.3357 43.4485 46.7414C43.7539 46.9449 44.0165 47.1635 44.2703 47.375C44.4795 47.549 44.685 47.7202 44.9089 47.8806C44.6944 47.9073 44.5189 47.946 44.3573 47.9823C44.1361 48.032 43.9449 48.0749 43.6975 48.0749C43.3948 48.0749 43.0337 48.0088 42.5611 47.8671C41.5937 47.577 39.4813 45.6807 37.9842 44.2492C38.7342 44.1664 39.4537 44.0586 40.1381 43.9222Z" fill="#F06600"/>
</svg>
