<svg width="55" height="62" viewBox="0 0 55 62" fill="none" xmlns="http://www.w3.org/2000/svg">
<path d="M3.87505 31C3.87505 32.2917 3.22921 34.875 1.93755 38.75C0.645879 42.625 4.57764e-05 45.2083 4.57764e-05 46.5C4.57764e-05 49.1237 0.3936 51.6061 1.18071 53.9473C1.96782 56.2884 3.11821 58.2158 4.63188 59.7295C6.14555 61.2432 7.83078 62 9.68755 62H36.8125C37.3373 62 37.7914 61.8083 38.1749 61.4248C38.5583 61.0413 38.75 60.5872 38.75 60.0625C38.75 59.5378 38.5583 59.0837 38.1749 58.7002C37.7914 58.3167 37.3373 58.125 36.8125 58.125C36.2474 58.125 35.7832 57.9434 35.42 57.5801C35.0567 57.2168 34.875 56.7526 34.875 56.1875C34.875 55.138 35.2787 53.917 36.086 52.5244C36.8933 51.1318 37.862 49.6989 38.9922 48.2256C40.1224 46.7523 41.2527 45.2285 42.3829 43.6543C43.5131 42.0801 44.4818 40.3444 45.2891 38.4473C46.0964 36.5501 46.5 34.7135 46.5 32.9375C46.5 29.9102 45.2891 27.4076 42.8672 25.4297C43.3516 23.9766 44.5625 23.25 46.5 23.25C47.6706 23.25 48.8916 22.8363 50.1631 22.0088C51.4346 21.1813 52.4336 20.3135 53.1602 19.4053C53.8868 18.4971 54.25 17.8411 54.25 17.4375C54.25 16.9128 54.0583 16.4587 53.6749 16.0752C53.2914 15.6917 52.8373 15.5 52.3125 15.5C51.9896 15.5 51.6465 15.2174 51.2832 14.6523C50.92 14.0872 50.5062 13.3809 50.042 12.5332C49.5778 11.6855 49.043 10.8278 48.4375 9.95996C47.8321 9.09212 47.0248 8.28483 46.0157 7.53809C45.0066 6.79134 43.8763 6.27669 42.625 5.99414V0C41.6967 0 40.6068 0.716471 39.3555 2.14941C38.1042 3.58236 37.2969 5.06575 36.9336 6.59961C34.9961 7.4069 33.5228 8.80957 32.5137 10.8076C31.5046 12.8057 31 15.0156 31 17.4375C31 18.6081 30.7478 19.7181 30.2432 20.7676C29.7387 21.8171 29.0222 22.7555 28.0938 23.583C27.1654 24.4105 26.4086 25.0361 25.8233 25.46C25.238 25.8838 24.5013 26.3581 23.6133 26.8828C23.4519 27.0039 23.3308 27.0846 23.25 27.125C20.9089 28.457 18.9714 29.7487 17.4375 31C14.6524 33.3008 12.3415 36.1868 10.5049 39.6582C8.66834 43.1296 7.75005 46.056 7.75005 48.4375C7.75005 48.599 7.72986 48.7806 7.6895 48.9824C7.64913 49.1842 7.46749 49.4668 7.14458 49.8301C6.82166 50.1934 6.37765 50.375 5.81255 50.375C5.24744 50.375 4.78325 50.0622 4.41997 49.4365C4.05669 48.8109 3.87505 47.832 3.87505 46.5C3.87505 45.0872 4.13742 43.6745 4.66216 42.2617C5.18689 40.849 5.83273 39.5068 6.59966 38.2354C7.36658 36.9639 8.13351 35.6419 8.90044 34.2695C9.66736 32.8971 10.3132 31.2523 10.8379 29.335C11.3627 27.4176 11.625 25.3893 11.625 23.25C11.625 21.3125 10.8178 19.5365 9.20317 17.9219C7.58859 16.3073 5.81255 15.5 3.87505 15.5C2.7852 15.5 1.86691 15.8734 1.12016 16.6201C0.373418 17.3669 4.57764e-05 18.2852 4.57764e-05 19.375C4.57764e-05 20.0208 0.12114 20.596 0.363327 21.1006C0.605515 21.6051 0.91834 22.0693 1.3018 22.4932C1.68527 22.917 1.89718 23.1693 1.93755 23.25C3.22921 25.3893 3.87505 27.9727 3.87505 31Z" fill="#F06600"/>
</svg>
