<svg width="62" height="52" viewBox="0 0 62 52" fill="none" xmlns="http://www.w3.org/2000/svg">
<path d="M42.2727 0.636353C42.2727 0.636353 40.3225 0.844898 39.4545 3.45453L36.6364 14.7273L47.9091 23.1818H56.3636C62 23.1818 62 17.5454 62 17.5454L53.5455 9.0909C50.7273 6.27272 47.9091 6.27272 45.0909 6.27272V3.45453C45.0909 3.45453 45.0909 0.636353 42.2727 0.636353ZM14.0909 6.27272C14.0909 6.27272 12.1013 6.23326 10.0158 7.27599C7.93036 8.31872 5.63636 10.9678 5.63636 14.7273V26C5.63636 31.6364 5.63636 34.4545 2.81818 34.4545C2.81818 34.4545 0 34.4545 0 37.2727V48.5454C0 48.5454 0 51.3636 2.81818 51.3636C5.63636 51.3636 5.63636 48.5454 5.63636 48.5454V40.0909C7.63164 40.0909 9.52545 39.3187 11.2727 38.4056V48.5454C11.2727 48.5454 11.2727 51.3636 14.0909 51.3636C16.9091 51.3636 16.9091 48.5454 16.9091 48.5454V34.4545H33.8182L37.5607 45.6822C39.4545 51.3636 42.2727 51.3636 42.2727 51.3636H45.0909C45.0909 51.3636 47.9091 51.3636 47.9091 48.5454C47.9091 45.7273 45.0909 45.7273 45.0909 45.7273V31.6364C45.0909 26.62 41.5287 24.5627 39.4545 23.1818L30.9887 17.5454H11.2727V14.7273C11.2727 12.8504 11.7913 12.6869 12.5296 12.3149C13.2624 11.9485 14.0909 11.9091 14.0909 11.9091C17.9011 11.9654 17.9011 6.21635 14.0909 6.27272Z" fill="#F06600"/>
</svg>
