<svg width="62" height="44" viewBox="0 0 62 44" fill="none" xmlns="http://www.w3.org/2000/svg">
<path d="M62 21.9999C62 19.9971 60.272 16.3376 56.4769 13.039C54.3107 11.1758 51.842 9.69651 49.1774 8.6651C49.0888 8.63196 48.991 8.63293 48.903 8.66784C48.8151 8.70275 48.7432 8.7691 48.7015 8.85401C48.6833 8.88912 48.6651 8.92303 48.6446 8.95815L47.4833 10.8835C45.5249 14.2652 44.4943 18.1042 44.4958 22.012C44.4973 25.9198 45.5308 29.7579 47.4918 33.1381L47.5196 33.1854L48.578 35.1229C48.6341 35.2258 48.7257 35.3048 48.8357 35.3454C48.9457 35.3859 49.0667 35.3851 49.1762 35.3433C58.0802 31.8594 62 25.0866 62 21.9999ZM50.6269 21.983C50.2256 22.0355 49.818 21.961 49.4612 21.77C49.1044 21.579 48.8164 21.2811 48.6376 20.918C48.4587 20.555 48.3981 20.1451 48.4641 19.7458C48.5301 19.3466 48.7194 18.978 49.0056 18.6918C49.2918 18.4057 49.6603 18.2163 50.0596 18.1503C50.4589 18.0843 50.8688 18.145 51.2318 18.3238C51.5948 18.5026 51.8928 18.7907 52.0838 19.1474C52.2748 19.5042 52.3492 19.9118 52.2968 20.3131C52.2414 20.7366 52.0476 21.1299 51.7456 21.4319C51.4437 21.7339 51.0503 21.9276 50.6269 21.983Z" fill="#F06600"/>
<path d="M40.6209 22.0001C40.6192 17.4062 41.8342 12.8939 44.1423 8.92193L44.1568 8.8965L44.7163 7.96771C44.7567 7.90154 44.7807 7.82663 44.7861 7.74927C44.7916 7.67192 44.7784 7.59438 44.7477 7.52319C44.7169 7.45199 44.6696 7.38921 44.6095 7.34013C44.5495 7.29105 44.4785 7.25711 44.4027 7.24115C42.8351 6.91326 41.2465 6.69517 39.6485 6.58845C39.4601 6.57628 39.2794 6.50889 39.129 6.3947C36.7943 4.61947 32.1661 1.51462 27.4483 0.716615C27.1259 0.663195 26.7953 0.692187 26.4871 0.800893C26.1789 0.9096 25.9032 1.09449 25.6857 1.33836C25.4682 1.58223 25.3159 1.87716 25.2429 2.19571C25.17 2.51425 25.1789 2.84607 25.2686 3.16029L26.5546 7.66134C26.5881 7.77798 26.5765 7.90293 26.5223 8.01146C26.468 8.11999 26.375 8.2042 26.2616 8.24743C21.7993 9.90521 17.9558 12.9398 15.1525 15.2527C14.9809 15.3931 14.7663 15.4705 14.5446 15.4718C14.3229 15.4731 14.1075 15.3983 13.9343 15.26C13.5532 14.9572 13.1621 14.6589 12.7609 14.3651C7.9607 10.8594 2.32136 10.3981 2.08401 10.3811C1.78267 10.3583 1.48018 10.4064 1.20071 10.5214C0.921246 10.6364 0.672559 10.8152 0.474524 11.0435C0.27649 11.2717 0.134599 11.5432 0.0601932 11.8361C-0.014213 12.129 -0.0190716 12.4352 0.0460055 12.7303C0.0968649 12.964 1.15886 17.6576 3.88468 21.4018C4.00739 21.5697 4.07352 21.7722 4.07352 21.9801C4.07352 22.188 4.00739 22.3905 3.88468 22.5583C1.15886 26.3013 0.0968649 30.9961 0.0460055 31.2298C-0.0190716 31.5249 -0.014213 31.8312 0.0601932 32.1241C0.134599 32.417 0.27649 32.6884 0.474524 32.9167C0.672559 33.145 0.921246 33.3237 1.20071 33.4388C1.48018 33.5538 1.78267 33.6018 2.08401 33.579C2.3262 33.5621 7.96069 33.0947 12.7548 29.5975C13.1463 29.3101 13.5286 29.0186 13.9016 28.7232C14.0749 28.585 14.2905 28.5104 14.5122 28.512C14.7339 28.5135 14.9483 28.5911 15.1198 28.7317C17.9352 31.0554 21.786 34.0937 26.2604 35.7551C26.3735 35.7983 26.4663 35.8823 26.5206 35.9906C26.5748 36.0988 26.5865 36.2235 26.5534 36.34L25.2626 40.8422C25.1728 41.1565 25.164 41.4883 25.2369 41.8068C25.3098 42.1254 25.4621 42.4203 25.6796 42.6642C25.8972 42.908 26.1728 43.0929 26.481 43.2016C26.7892 43.3103 27.1199 43.3393 27.4423 43.2859C29.5202 42.9347 33.7246 41.7286 39.0733 37.6151C39.2261 37.4985 39.4096 37.4291 39.6013 37.4153C41.1973 37.3107 42.7841 37.0963 44.3506 36.7735C44.4245 36.758 44.4938 36.7254 44.5529 36.6783C44.612 36.6312 44.6593 36.571 44.6909 36.5024C44.7226 36.4338 44.7377 36.3587 44.7352 36.2832C44.7327 36.2077 44.7125 36.1338 44.6763 36.0675L44.1302 35.0636C41.8289 31.0948 40.6182 26.5879 40.6209 22.0001Z" fill="#F06600"/>
</svg>
