<svg width="21" height="20" viewBox="0 0 21 20" fill="none" xmlns="http://www.w3.org/2000/svg">
<path d="M10.7737 4.87169C7.99326 4.87169 5.75057 7.05208 5.75057 9.75525C5.75057 12.4584 7.99326 14.6388 10.7737 14.6388C13.5541 14.6388 15.7968 12.4584 15.7968 9.75525C15.7968 7.05208 13.5541 4.87169 10.7737 4.87169ZM10.7737 12.9302C8.97689 12.9302 7.508 11.5064 7.508 9.75525C7.508 8.00414 8.97252 6.5803 10.7737 6.5803C12.5748 6.5803 14.0393 8.00414 14.0393 9.75525C14.0393 11.5064 12.5704 12.9302 10.7737 12.9302ZM17.1738 4.67192C17.1738 5.30521 16.6492 5.811 16.0022 5.811C15.3508 5.811 14.8306 5.30096 14.8306 4.67192C14.8306 4.04288 15.3552 3.53285 16.0022 3.53285C16.6492 3.53285 17.1738 4.04288 17.1738 4.67192ZM20.5007 5.828C20.4264 4.30215 20.0679 2.95056 18.9181 1.83699C17.7728 0.723415 16.3826 0.374892 14.8131 0.298387C13.1956 0.209131 8.34736 0.209131 6.72983 0.298387C5.16476 0.370642 3.77456 0.719165 2.6248 1.83274C1.47504 2.94631 1.12093 4.2979 1.04224 5.82375C0.950437 7.39635 0.950437 12.1099 1.04224 13.6825C1.11656 15.2084 1.47504 16.5599 2.6248 17.6735C3.77456 18.7871 5.16039 19.1356 6.72983 19.2121C8.34736 19.3014 13.1956 19.3014 14.8131 19.2121C16.3826 19.1399 17.7728 18.7913 18.9181 17.6735C20.0635 16.5599 20.422 15.2084 20.5007 13.6825C20.5925 12.1099 20.5925 7.4006 20.5007 5.828ZM18.411 15.3699C18.07 16.2029 17.4099 16.8447 16.5487 17.1805C15.259 17.6778 12.1988 17.563 10.7737 17.563C9.34848 17.563 6.28392 17.6735 4.99864 17.1805C4.14178 16.849 3.48166 16.2072 3.13629 15.3699C2.6248 14.116 2.74284 11.1408 2.74284 9.75525C2.74284 8.36966 2.62917 5.39022 3.13629 4.14064C3.47728 3.30758 4.13741 2.66579 4.99864 2.33002C6.28829 1.83274 9.34848 1.94749 10.7737 1.94749C12.1988 1.94749 15.2634 1.83699 16.5487 2.33002C17.4055 2.66154 18.0657 3.30333 18.411 4.14064C18.9225 5.39447 18.8045 8.36966 18.8045 9.75525C18.8045 11.1408 18.9225 14.1203 18.411 15.3699Z" fill="#666262"/>
</svg>
