<svg width="62" height="38" viewBox="0 0 62 38" fill="none" xmlns="http://www.w3.org/2000/svg">
<path d="M45.9701 5.93516C45.9701 5.93516 39.9395 -5.87999 37.2965 6.46932C33.5514 8.37515 27.5455 5.45347 20.3732 5.96269C17.9022 6.13873 0.00605565 5.73675 3.45294e-05 21.6067C-0.00598659 31.7477 6.76691 36.9571 11.1053 37.1435C12.1068 37.1842 15.9967 37.1435 16.2476 37.13C17.5797 37.0686 19.0227 37.0058 19.0397 36.306C19.0741 34.8359 13.3907 34.2338 12.9451 33.9159C12.5025 33.5976 12.5025 31.6499 15.1036 32.3481C19.6097 33.6183 27.333 32.7939 29.1098 32.2864C30.8866 31.7764 32.0519 34.401 33.0669 35.7985C34.0824 37.1954 35.6688 37.1303 35.6688 37.1303C35.6688 37.1303 41.0646 37.1303 42.3987 37.1303C43.7305 37.1303 43.287 35.6365 40.367 35.0025C37.4471 34.3677 39.0699 32.8911 40.367 31.6098C41.5615 30.4299 44.5904 27.2883 46.84 26.9119C61.7563 24.3735 61.5528 15.169 61.3618 13.7735C65.3902 9.97562 49.1432 6.12812 45.9701 5.93516Z" fill="#F06600"/>
</svg>
