<svg width="62" height="62" viewBox="0 0 62 62" fill="none" xmlns="http://www.w3.org/2000/svg">
<path d="M27.125 62C29.2651 62 31 60.2651 31 58.125C31 55.9849 29.2651 54.25 27.125 54.25C24.9849 54.25 23.25 55.9849 23.25 58.125C23.25 60.2651 24.9849 62 27.125 62Z" fill="#F06600"/>
<path d="M47.7917 62C49.9318 62 51.6667 60.2651 51.6667 58.125C51.6667 55.9849 49.9318 54.25 47.7917 54.25C45.6516 54.25 43.9167 55.9849 43.9167 58.125C43.9167 60.2651 45.6516 62 47.7917 62Z" fill="#F06600"/>
<path d="M62.0001 16.7917C62.0001 26.0503 54.467 33.5833 45.2084 33.5833C35.9497 33.5833 28.4167 26.0503 28.4167 16.7917C28.4167 7.533 35.9497 0 45.2084 0C54.467 0 62.0001 7.533 62.0001 16.7917ZM53.3665 9.0365C52.2919 8.09617 50.6618 8.20983 49.7215 9.27933L42.4985 17.5357L39.2848 14.322C38.2747 13.3119 36.642 13.3119 35.6319 14.322C34.6219 15.3321 34.6219 16.9648 35.6319 17.9748L40.7986 23.1415C41.8552 24.1981 43.586 24.1413 44.5677 23.0175L53.6094 12.6842C54.5497 11.6069 54.4412 9.97425 53.3665 9.0365Z" fill="#F06600"/>
<path d="M23.25 16.7916C23.25 16.355 23.2888 15.9288 23.3146 15.4999H16.4274L15.4458 10.8344C14.7586 7.57943 11.8498 5.20793 8.52502 5.19501L1.94527 5.1666C1.94269 5.1666 1.94011 5.1666 1.93752 5.1666C0.870606 5.1666 0.00518968 6.02685 2.30145e-05 7.09635C-0.00514365 8.16585 0.860273 9.03643 1.92977 9.0416L8.50694 9.07001C10.0182 9.07518 11.3409 10.155 11.6534 11.6327L17.6339 40.0416H16.1459C12.9399 40.0416 10.3334 42.6482 10.3334 45.8541C10.3334 49.06 12.9399 51.6666 16.1459 51.6666H54.8959C55.9654 51.6666 56.8334 50.7986 56.8334 49.7291C56.8334 48.6596 55.9654 47.7916 54.8959 47.7916H16.1459C15.0764 47.7916 14.2084 46.9236 14.2084 45.8541C14.2084 44.7846 15.0764 43.9166 16.1459 43.9166H54.8959C55.8104 43.9166 56.6034 43.2733 56.792 42.3769L58.5099 34.2213C54.8132 37.0501 50.2097 38.7499 45.2084 38.7499C33.1003 38.7499 23.25 28.8997 23.25 16.7916Z" fill="#F06600"/>
</svg>
