<svg width="190" height="82" viewBox="0 0 190 82" fill="none" xmlns="http://www.w3.org/2000/svg">
<path d="M10.3657 10.7687H0V4.66144H28.2299V10.7928H17.8642V37.1656H10.3657V10.7687Z" fill="#1B1B37"/>
<path d="M46.6434 11.7889V18.4764C46.041 18.4281 45.5784 18.3846 45.0242 18.3846C41.0437 18.3846 38.4077 20.5654 38.4077 25.3477V37.1414H31.1791V12.1613H38.0704V15.4591C39.8389 13.0413 42.8026 11.7889 46.6434 11.7889Z" fill="#1B1B37"/>
<path d="M108.139 24.6514C108.139 32.4994 102.722 37.5138 95.7349 37.5138C92.6363 37.5138 90.0918 36.5467 88.2413 34.4964V46.15H81.0128V12.1613H87.904V15.0626C89.7111 12.8818 92.3953 11.8131 95.7253 11.8131C102.722 11.789 108.139 16.8034 108.139 24.6514ZM100.824 24.6514C100.824 20.3333 98.0962 17.7318 94.4868 17.7318C90.8773 17.7318 88.1449 20.3333 88.1449 24.6514C88.1449 28.9695 90.8773 31.571 94.4868 31.571C98.0962 31.571 100.848 28.9695 100.848 24.6514H100.824Z" fill="#1B1B37"/>
<path d="M125.02 24.6514C125.02 17.1273 130.803 11.7889 138.904 11.7889C144.132 11.7889 148.253 14.0665 150.055 18.1524L144.455 21.1698C143.116 18.8004 141.125 17.7318 138.86 17.7318C135.203 17.7318 132.335 20.2897 132.335 24.6514C132.335 29.013 135.227 31.5709 138.86 31.5709C141.125 31.5709 143.116 30.5507 144.455 28.1329L150.055 31.1986C148.253 35.1927 144.132 37.5138 138.904 37.5138C130.808 37.5138 125.02 32.1754 125.02 24.6514Z" fill="#1B1B37"/>
<path d="M176.246 22.8864V37.1414H169.5V34.0322C168.155 36.3049 165.567 37.5138 161.91 37.5138C156.079 37.5138 152.609 34.2643 152.609 29.9462C152.609 25.5362 155.708 22.4705 163.298 22.4705H169.037C169.037 19.3565 167.187 17.548 163.298 17.548C160.721 17.5256 158.205 18.3398 156.127 19.869L153.525 14.816C156.252 12.8818 160.271 11.7986 164.262 11.7986C171.847 11.7889 176.246 15.2995 176.246 22.8864ZM169.018 29.2499V26.6968H164.074C160.7 26.6968 159.63 27.9492 159.63 29.6222C159.63 31.4307 161.158 32.6396 163.703 32.6396C166.112 32.6396 168.194 31.5226 169.028 29.2499H169.018Z" fill="#1B1B37"/>
<path d="M182.771 2.68854H190V37.1414H182.771V2.68854Z" fill="#1B1B37"/>
<path d="M120.163 12.1613H112.944V37.1415H120.163V12.1613Z" fill="#1B1B37"/>
<path d="M75.972 20.9764C75.3962 20.4594 74.6954 20.103 73.9394 19.9426C73.1835 19.7823 72.3989 19.8236 71.6638 20.0625C71.9954 19.3999 72.2183 18.688 72.324 17.9542C72.7144 15.1448 71.3602 12.7947 68.9796 12.1081C66.599 11.4214 63.9678 12.9253 62.9173 15.5219C62.6872 14.963 62.3807 14.4389 62.0065 13.9649C60.6571 12.2677 58.7295 11.5472 56.8597 12.1129C54.4502 12.7996 53.1202 15.1448 53.5153 17.9542C53.6073 18.6018 53.7889 19.2333 54.0551 19.8304C52.9955 19.4269 51.8231 19.4407 50.7733 19.869C48.571 20.7636 47.4771 23.0508 47.9927 25.6958C48.4746 28.0604 50.3251 30.6039 53.3611 30.6039C53.5449 30.6033 53.7285 30.5904 53.9105 30.5652C53.7473 30.9369 53.6214 31.3241 53.5346 31.7209C53.3477 32.4398 53.3554 33.1957 53.5571 33.9107C53.7587 34.6256 54.1469 35.2735 54.6815 35.7875C55.3347 36.3737 56.1224 36.7883 56.9743 36.9942C57.8262 37.2001 58.7157 37.1909 59.5632 36.9674C61.5624 36.5979 63.612 36.5979 65.6111 36.9674C66.4583 37.1894 67.3471 37.1974 68.1981 36.9907C69.0491 36.784 69.8358 36.3689 70.488 35.7827C71.0214 35.2689 71.4084 34.6216 71.6092 33.9075C71.81 33.1935 71.8172 32.4386 71.6301 31.7209C71.5626 31.4263 71.474 31.137 71.365 30.8553C71.6108 30.8918 71.8587 30.9112 72.1072 30.9133C74.2083 30.9133 76.2274 29.4627 77.1286 27.248C78.0876 24.9173 77.6298 22.4609 75.972 20.9764ZM67.6785 24.7094C67.4251 24.0972 67.0717 23.5317 66.6327 23.0363C66.7752 23.0516 66.9184 23.0597 67.0616 23.0605C67.4741 23.0595 67.885 23.0092 68.2857 22.9106C67.9943 23.4762 67.7896 24.0826 67.6785 24.7094ZM64.522 16.6776C65.0039 14.9852 66.3822 13.844 67.7749 13.844C68.006 13.8436 68.2362 13.8745 68.4592 13.9359C70.2422 14.4485 70.6422 16.2763 70.4446 17.6882C70.2133 19.371 69.0567 21.1795 67.0713 21.1795C66.6716 21.1793 66.2776 21.0842 65.9216 20.9018C65.5656 20.7194 65.2577 20.455 65.0232 20.1302C64.6805 19.6322 64.4569 19.0616 64.37 18.4627C64.2831 17.8639 64.3351 17.253 64.522 16.6776ZM63.5582 21.3197C63.3337 21.2774 63.1068 21.25 62.8787 21.2375C62.707 21.2278 62.5348 21.2278 62.3631 21.2375C62.4974 21.0582 62.6182 20.8691 62.7245 20.6717C62.8012 20.5354 62.8704 20.395 62.9317 20.2511C63.0879 20.6117 63.2835 20.9539 63.5148 21.2713L63.5582 21.3197ZM57.7754 24.221C57.6646 23.7534 57.503 23.2993 57.2935 22.8671C57.7061 22.9958 58.1339 23.0689 58.5657 23.0847C58.2577 23.4271 57.9894 23.8035 57.7657 24.2065L57.7754 24.221ZM57.3898 13.9552C57.6201 13.8884 57.8585 13.8542 58.0982 13.8537C58.572 13.8774 59.0344 14.0074 59.4514 14.2342C59.8684 14.461 60.2294 14.7788 60.5078 15.1641C61.4089 16.3005 61.9245 18.167 61.0427 19.7675C60.8255 20.1909 60.4979 20.5472 60.0948 20.7984C59.6916 21.0497 59.2281 21.1864 58.7536 21.194C56.7682 21.194 55.6116 19.3855 55.3803 17.7027C55.1972 16.2666 55.5972 14.4533 57.3802 13.9407L57.3898 13.9552ZM49.8625 25.3477C49.5975 23.9889 49.8914 22.3013 51.4913 21.6485C51.7978 21.5249 52.1249 21.4609 52.4552 21.4599C52.8881 21.4754 53.3136 21.5774 53.7066 21.7601C54.0997 21.9428 54.4525 22.2024 54.7442 22.5237C55.761 23.5585 56.4742 25.3573 55.7658 27.0449C55.5813 27.5361 55.2517 27.9591 54.8211 28.2572C54.3905 28.5553 53.8795 28.7144 53.3563 28.7132C51.3998 28.6987 50.1661 26.9531 49.8529 25.3332L49.8625 25.3477ZM69.1965 34.4191C68.7814 34.7833 68.2836 35.0399 67.7468 35.1663C67.2099 35.2928 66.6504 35.2852 66.1171 35.1444C65.0439 34.9101 63.9481 34.7966 62.8498 34.8059C61.5844 34.7583 60.3182 34.8721 59.0813 35.1444C58.5484 35.2859 57.9891 35.2942 57.4523 35.1686C56.9155 35.043 56.4175 34.7873 56.002 34.4239C55.7041 34.1345 55.491 33.7688 55.3856 33.3664C55.2803 32.9641 55.2868 32.5405 55.4044 32.1415C55.6646 30.9375 56.2285 30.4153 56.9417 29.7528C57.9747 28.9421 58.6856 27.7882 58.9464 26.4985C59.4042 24.163 61.086 23.1475 62.6137 23.1475H62.7775C64.1558 23.22 65.7942 24.1146 66.252 26.4937C66.5126 27.7836 67.2213 28.9387 68.2519 29.7528C68.9603 30.4104 69.5242 30.9327 69.7844 32.1367C69.8992 32.5336 69.9042 32.9543 69.799 33.3538C69.6937 33.7533 69.4821 34.1165 69.1868 34.4046L69.1965 34.4191ZM75.3889 26.5372C74.7769 28.0217 73.4613 29.0226 72.1216 29.0226C71.5239 29.0257 70.944 28.819 70.482 28.4385C70.02 28.0579 69.7051 27.5274 69.5916 26.9385C69.363 26.0362 69.4336 25.0836 69.7928 24.2251C70.1519 23.3666 70.7799 22.6488 71.5819 22.1804C72.0282 21.9183 72.5346 21.7767 73.0517 21.7694C73.6679 21.7682 74.2623 21.9975 74.7191 22.4125C75.5094 23.1088 76.16 24.6175 75.3793 26.5227L75.3889 26.5372Z" fill="#F06600"/>
<path d="M111.956 4.03764C111.956 1.76496 113.758 0 116.442 0C119.126 0 120.934 1.66824 120.934 3.89741C120.934 6.31516 119.126 8.08012 116.442 8.08012C113.758 8.08012 111.956 6.31516 111.956 4.03764Z" fill="#1B1B37"/>
<path d="M127.579 45.884C129.839 44.597 132.336 43.7843 134.918 43.4953C137.394 43.1385 139.916 43.2932 142.33 43.9498C145.161 44.7009 147.022 46.0403 147.915 47.9681C148.902 50.0377 148.543 52.4796 146.841 55.2939C144.104 59.836 137.705 63.4804 127.647 66.2269C127.577 66.2344 127.509 66.2506 127.444 66.2753C127.494 70.7478 127.785 75.2143 128.316 79.6551C128.34 79.7834 128.327 79.9158 128.28 80.0372C128.232 80.1586 128.151 80.2642 128.047 80.3417C127.805 80.5337 127.511 80.6483 127.203 80.6705C126.898 80.7111 126.588 80.639 126.331 80.4674C126.221 80.4004 126.126 80.312 126.05 80.2073C125.975 80.1027 125.921 79.984 125.892 79.8582C125.255 74.2693 124.962 68.6462 125.015 63.021C125.015 61.1932 125.049 58.4047 125.117 54.6556C125.184 50.9065 125.218 48.0841 125.218 46.1886C125.224 46.0608 125.261 45.9365 125.326 45.8262C125.39 45.7159 125.481 45.6229 125.589 45.5552C125.831 45.3692 126.128 45.2704 126.432 45.2747C126.663 45.2432 126.898 45.285 127.103 45.3943C127.309 45.5036 127.475 45.6749 127.579 45.884ZM127.444 64.3459C136.514 61.8024 142.261 58.5481 144.687 54.583C146.075 52.2072 146.388 50.2053 145.626 48.5774C144.957 47.1896 143.583 46.208 141.521 45.6277C139.242 45.0408 136.861 44.9714 134.552 45.4246C132.119 45.7671 129.81 46.7145 127.835 48.1809C127.764 48.2087 127.697 48.2427 127.632 48.2824C127.632 49.7105 127.598 52.0767 127.531 55.3809C127.463 58.6852 127.43 61.2351 127.43 63.0307V64.3556L127.444 64.3459Z" fill="#F06600"/>
<path d="M150.879 65.8208C151.319 63.7391 152.136 61.756 153.289 59.9699C155.306 56.9525 157.888 55.2923 161.033 54.9893C162.302 54.8233 163.593 54.9985 164.772 55.497C165.712 55.9041 166.468 56.6468 166.893 57.5811C167.567 59.2123 167.275 61.0611 166.016 63.1274C164.714 65.2629 162.714 66.8795 160.358 67.7018C157.98 68.5508 155.408 68.6919 152.951 68.108C152.906 68.4284 152.884 68.7515 152.884 69.0751C152.749 72.2633 153.446 74.8068 154.975 76.7055C156.582 78.6687 158.916 79.465 161.977 79.0942C163.738 78.8867 165.424 78.2582 166.893 77.2616C168.4 76.2642 169.721 75.0088 170.796 73.5528C170.995 73.3412 171.254 73.1974 171.538 73.1417C171.843 73.0773 172.16 73.1042 172.449 73.2191C172.576 73.2638 172.692 73.3347 172.79 73.4271C172.888 73.5196 172.965 73.6315 173.018 73.7559C173.062 73.8712 173.08 73.9953 173.069 74.1186C173.058 74.2418 173.019 74.3609 172.955 74.4667C171.652 76.1015 170.107 77.5253 168.372 78.6881C166.583 79.9041 164.528 80.6719 162.382 80.9269C158.206 81.4008 155.04 80.316 152.884 77.6726C151.091 75.4676 150.288 72.5841 150.474 69.0219C150.476 68.4439 150.521 67.8668 150.609 67.2956C150.161 66.991 150.069 66.6332 150.339 66.227C150.465 66.0308 150.656 65.8865 150.879 65.8208ZM153.236 66.227C155.223 66.8089 157.342 66.7548 159.298 66.0723C161.185 65.3996 162.78 64.0882 163.809 62.3634C164.798 60.7322 165.045 59.3251 164.551 58.142C164.101 57.0879 163.023 56.6462 161.317 56.8171C159.068 57.0202 157.115 58.3435 155.457 60.7871C154.395 62.4508 153.642 64.2939 153.236 66.227Z" fill="#F06600"/>
<path d="M178.02 53.8675C176.732 53.8658 175.445 53.9336 174.165 54.0705C173.861 54.107 173.554 54.046 173.288 53.8965C173.166 53.838 173.059 53.7522 172.975 53.6457C172.892 53.5392 172.834 53.4149 172.806 53.2824C172.784 53.1572 172.795 53.0287 172.836 52.9086C172.877 52.7886 172.948 52.681 173.042 52.5957C173.273 52.3818 173.571 52.2568 173.885 52.2427C175.276 52.1073 176.667 52.0396 178.058 52.0396C178.287 48.9868 178.421 46.7657 178.463 45.3763C178.468 45.2515 178.505 45.13 178.57 45.0234C178.635 44.9168 178.726 44.8286 178.834 44.7671C179.093 44.5933 179.4 44.5038 179.711 44.5108C180.016 44.4985 180.314 44.5982 180.55 44.7912C180.655 44.8716 180.741 44.9754 180.799 45.0946C180.858 45.2138 180.888 45.345 180.887 45.4779C180.845 46.8995 180.712 49.0868 180.487 52.0396C181.788 52.0751 183.292 52.1428 184.998 52.2427C185.315 52.2616 185.619 52.3762 185.87 52.5715C185.973 52.6448 186.053 52.7461 186.101 52.8634C186.149 52.9807 186.162 53.1093 186.14 53.234C186.115 53.3637 186.063 53.4869 185.989 53.5958C185.914 53.7048 185.818 53.7972 185.706 53.8675C185.459 54.0362 185.159 54.1084 184.863 54.0705C183.109 53.9706 181.628 53.9029 180.42 53.8675C179.832 63.2967 179.943 70.4339 180.752 75.279C181.074 77.181 181.904 78.572 183.244 79.4521C184.583 80.3321 186.222 80.3482 188.159 79.5004C188.452 79.3981 188.768 79.3814 189.07 79.4521C189.358 79.4926 189.622 79.637 189.812 79.8582C189.887 79.9538 189.936 80.0675 189.954 80.188C189.972 80.3085 189.958 80.4315 189.913 80.5449C189.818 80.8038 189.623 81.0142 189.374 81.13C186.453 82.384 183.872 82.2824 181.629 80.8253C180.731 80.2225 179.972 79.4338 179.403 78.5122C178.833 77.5906 178.467 76.5575 178.328 75.4821C177.541 70.5693 177.438 63.3644 178.02 53.8675Z" fill="#F06600"/>
</svg>
